<svg width="1448" height="182" viewBox="0 0 1448 182" fill="none" xmlns="http://www.w3.org/2000/svg">
<path d="M405.278 64.0624C396.707 55.7172 385.43 51.4318 371.672 51.4318C356.109 51.4318 343.93 57.5216 335.359 69.4754V10.3827H311V168.264H335.359V109.848C335.359 98.3452 338.065 89.3234 343.478 82.557C348.892 75.7907 356.56 72.4075 366.258 72.4075C375.28 72.4075 382.047 75.3396 386.783 80.9782C391.519 86.8424 394 95.1875 394 106.014V168.264H418.359V104.66C418.359 86.1657 413.848 72.6331 405.278 64.0624Z" fill="#111111"/>
<path d="M541.782 52.7851H517.423V110.073C517.423 122.027 514.716 131.5 509.529 138.267C504.116 145.033 496.898 148.416 487.651 148.416C478.629 148.416 472.088 145.484 467.577 139.62C463.067 133.756 460.811 125.185 460.811 113.908V52.7851H436.452V116.389C436.452 135.109 440.512 148.642 449.083 156.987C457.428 165.557 468.48 169.617 482.012 169.617C496.898 169.617 508.852 164.43 517.648 153.604L520.355 168.264H541.782V52.7851Z" fill="#111111"/>
<path d="M582.928 130.147H559.471C559.697 142.552 564.659 152.25 574.131 159.242C583.604 166.234 596.235 169.617 611.797 169.617C620.819 169.617 629.164 168.264 636.607 165.332C643.825 162.4 649.689 158.115 653.974 152.701C658.034 147.288 660.29 140.748 660.29 133.53C660.29 125.411 658.26 119.095 654.2 114.359C650.14 109.622 644.727 106.239 637.961 103.984C631.194 101.728 622.849 100.15 612.925 99.0218C605.482 98.1196 600.069 97.443 596.911 96.7663C593.528 96.0897 590.822 94.962 588.566 93.1576C586.311 91.3533 585.409 88.8723 585.409 85.2636C585.409 80.7527 587.439 76.9184 591.949 74.2119C596.235 71.5053 601.873 70.1521 609.091 70.1521C616.083 70.1521 621.947 71.9564 626.683 75.3396C631.194 78.7228 633.901 83.0081 634.577 88.1956H658.26C657.357 76.4673 652.395 67.4455 643.374 60.9047C634.352 54.5895 622.398 51.2063 607.963 51.2063C598.941 51.2063 591.047 52.7851 584.055 55.7172C577.064 58.8748 571.65 63.1602 567.591 68.5732C563.531 73.9863 561.726 80.3016 561.726 87.2935C561.726 94.962 563.531 100.826 567.591 105.337C571.65 109.848 576.838 113.006 583.379 115.035C589.92 117.065 598.265 118.644 608.414 119.772C615.632 120.674 621.045 121.576 624.653 122.478C628.262 123.381 630.969 124.734 633.224 126.538C635.254 128.568 636.382 131.5 636.382 135.335C636.382 140.071 633.901 143.905 629.39 146.612C624.879 149.318 618.789 150.672 611.572 150.672C603.227 150.672 596.46 148.867 591.273 145.033C586.085 141.199 583.379 136.237 582.928 130.147Z" fill="#111111"/>
<path d="M685.235 74.2119V136.913C685.235 147.739 687.716 155.634 692.678 160.596C697.64 165.783 705.76 168.264 716.811 168.264H740.268V146.837H721.773C717.263 146.837 714.33 145.935 712.526 144.131C710.722 142.326 709.82 138.943 709.82 134.432V74.2119H737.562V52.7851H709.82V20.5322H685.235V52.7851H665.162V74.2119H685.235Z" fill="#111111"/>
<path d="M757.852 10.3827V168.264H782.211V10.3827H757.852Z" fill="#111111"/>
<path d="M806.539 79.6249C801.803 88.6467 799.548 99.0218 799.548 110.75C799.548 122.478 801.803 132.854 806.765 141.65C811.727 150.672 818.493 157.438 827.515 162.4C836.537 167.362 846.912 169.617 859.091 169.617C872.85 169.617 884.352 166.009 893.6 158.34C902.847 150.897 908.486 141.199 910.741 129.47H886.382C884.578 136.011 881.195 140.973 876.233 144.582C871.045 148.191 864.73 149.769 857.287 149.769C847.814 149.769 840.146 146.837 834.507 140.973C828.643 135.109 825.485 127.215 825.034 117.065V115.712H912.094C912.546 112.554 912.771 109.622 912.771 106.465C912.546 95.4131 910.065 85.7146 905.103 77.3695C900.141 69.2499 893.6 62.7091 885.029 58.1982C876.458 53.6873 866.76 51.4318 855.708 51.4318C844.657 51.4318 834.958 53.9128 826.387 58.8748C817.817 63.8368 811.276 70.6031 806.539 79.6249ZM887.961 97.8941H825.936C826.839 89.7745 829.996 83.4592 835.86 78.4972C841.724 73.5352 848.491 71.0542 856.61 71.0542C865.181 71.0542 872.173 73.5352 877.812 78.2717C883.45 83.0081 886.833 89.5489 887.961 97.8941Z" fill="#111111"/>
<path d="M978.717 52.7856H958.644V74.2121H978.717V168.263H1003.3V74.2121H1034.2V52.7856H1003.3V43.0874C1003.3 39.2531 1003.98 36.3211 1005.78 34.5168C1007.59 32.7124 1010.29 31.8103 1014.35 31.8103H1034.43V10.3838H1010.97C999.918 10.3838 991.799 13.0903 986.611 18.2778C981.198 23.4652 978.717 31.1336 978.717 41.283V52.7856Z" fill="#111111"/>
<path d="M1156.67 52.7856H1132.31V110.073C1132.31 122.027 1129.61 131.5 1124.42 138.266C1119.01 145.032 1111.79 148.415 1102.54 148.415C1093.52 148.415 1086.98 145.483 1082.47 139.619C1077.96 133.755 1075.7 125.184 1075.7 113.907V52.7856H1051.34V116.388C1051.34 135.108 1055.4 148.641 1063.97 156.986C1072.32 165.556 1083.37 169.616 1096.9 169.616C1111.79 169.616 1123.74 164.429 1132.54 153.603L1135.24 168.263H1156.67V52.7856Z" fill="#111111"/>
<path d="M1272.7 64.0627C1264.13 55.7177 1252.85 51.4324 1239.32 51.4324C1223.3 51.4324 1210.9 57.0709 1202.33 67.8969L1199.62 52.7856H1178.42V168.263H1202.78V110.073C1202.78 98.345 1205.49 89.3234 1210.9 82.5571C1216.31 75.7909 1223.98 72.4078 1233.68 72.4078C1242.7 72.4078 1249.47 75.3398 1254.2 80.9783C1258.71 86.8424 1261.19 95.1875 1261.19 106.013V168.263H1285.78V104.66C1285.78 86.1658 1281.27 72.6333 1272.7 64.0627Z" fill="#111111"/>
<path d="M1420.02 10.3838H1395.67V68.7991C1391.61 63.3861 1386.64 59.3263 1380.33 56.1688C1374.01 53.0112 1366.57 51.4324 1358.23 51.4324C1347.85 51.4324 1338.38 53.9133 1330.26 58.8753C1321.91 63.8372 1315.37 70.6034 1310.64 79.6251C1305.9 88.6467 1303.65 98.7961 1303.65 110.524C1303.65 122.704 1305.9 133.078 1310.64 142.1C1315.15 151.122 1321.69 157.888 1330.03 162.624C1338.15 167.361 1347.63 169.616 1358.23 169.616C1374.01 169.616 1386.64 163.527 1395.89 150.896L1398.82 168.263H1420.02V10.3838ZM1386.64 138.491C1380.33 145.709 1372.21 149.092 1362.29 149.092C1352.14 149.092 1344.02 145.709 1337.93 138.491C1331.61 131.274 1328.68 122.027 1328.68 110.524C1328.68 99.2472 1331.61 90.2255 1337.93 83.0082C1344.02 75.7909 1352.14 72.1822 1362.29 72.1822C1372.21 72.1822 1380.33 75.7909 1386.64 83.0082C1392.73 90.2255 1395.89 99.4727 1395.89 110.975C1395.89 122.252 1392.73 131.5 1386.64 138.491Z" fill="#111111"/>
<path fill-rule="evenodd" clip-rule="evenodd" d="M106.882 99.2838L38.9386 167.227C37.8034 168.362 36.2637 169 34.6583 169C33.0529 169 31.5132 168.362 30.378 167.227L1.77295 138.622C0.637749 137.487 -2.07013e-07 135.947 0 134.342C2.07013e-07 132.736 0.637756 131.197 1.77296 130.061L38.0541 93.7803C39.1893 92.6451 39.827 91.1054 39.827 89.5C39.827 87.8946 39.1893 86.3549 38.0541 85.2197L1.77297 48.9386C0.637769 47.8034 1.13573e-05 46.2637 1.15643e-05 44.6583C1.17713e-05 43.0529 0.637768 41.5132 1.77297 40.378L30.378 11.773C31.5132 10.6377 33.0529 10 34.6583 10C36.2637 10 37.8034 10.6378 38.9386 11.773L106.882 79.7161C109.476 82.3114 110.933 85.8306 110.933 89.5C110.933 93.1694 109.476 96.6886 106.882 99.2838Z" fill="#ADA1ED"/>
<path fill-rule="evenodd" clip-rule="evenodd" d="M154.957 99.2838L87.0139 167.227C85.8787 168.362 84.339 169 82.7336 169C81.1282 169 79.5885 168.362 78.4533 167.227L49.8482 138.622C48.713 137.487 48.0753 135.947 48.0753 134.342C48.0753 132.736 48.7131 131.197 49.8483 130.061L86.1294 93.7803C87.2646 92.6451 87.9023 91.1054 87.9023 89.5C87.9023 87.8946 87.2646 86.3549 86.1294 85.2197L49.8483 48.9386C48.7131 47.8034 48.0753 46.2637 48.0753 44.6583C48.0753 43.0529 48.7131 41.5132 49.8483 40.378L78.4533 11.773C79.5885 10.6377 81.1282 10 82.7336 10C84.339 10 85.8787 10.6378 87.0139 11.773L154.957 79.7161C157.551 82.3114 159.008 85.8306 159.008 89.5C159.008 93.1694 157.551 96.6886 154.957 99.2838Z" fill="#D75856"/>
<path fill-rule="evenodd" clip-rule="evenodd" d="M203.033 99.2838L135.089 167.227C133.954 168.362 132.414 169 130.809 169C129.204 169 127.664 168.362 126.529 167.227L97.9236 138.622C96.7884 137.487 96.1507 135.947 96.1507 134.342C96.1507 132.736 96.7885 131.197 97.9237 130.061L134.205 93.7803C135.34 92.6451 135.978 91.1054 135.978 89.5C135.978 87.8946 135.34 86.3549 134.205 85.2197L97.9237 48.9386C96.7885 47.8034 96.1507 46.2637 96.1507 44.6583C96.1507 43.0529 96.7885 41.5132 97.9237 40.378L126.529 11.773C127.664 10.6377 129.204 10 130.809 10C132.414 10 133.954 10.6378 135.089 11.773L203.033 79.7161C205.627 82.3114 207.084 85.8306 207.084 89.5C207.084 93.1694 205.627 96.6886 203.033 99.2838Z" fill="#E88149"/>
<path fill-rule="evenodd" clip-rule="evenodd" d="M251.108 99.2838L183.165 167.227C182.029 168.362 180.49 169 178.884 169C177.279 169 175.739 168.362 174.604 167.227L145.999 138.622C144.864 137.487 144.226 135.947 144.226 134.342C144.226 132.736 144.864 131.197 145.999 130.061L182.28 93.7803C183.415 92.6451 184.053 91.1054 184.053 89.5C184.053 87.8946 183.415 86.3549 182.28 85.2197L145.999 48.9386C144.864 47.8034 144.226 46.2637 144.226 44.6583C144.226 43.0529 144.864 41.5132 145.999 40.378L174.604 11.773C175.739 10.6377 177.279 10 178.884 10C180.49 10 182.03 10.6378 183.165 11.773L251.108 79.7161C253.702 82.3114 255.159 85.8306 255.159 89.5C255.159 93.1694 253.702 96.6886 251.108 99.2838Z" fill="#F4CA66"/>
</svg>
